<svg xmlns="http://www.w3.org/2000/svg" width="24.157" height="17.465" viewBox="0 0 24.157 17.465">
  <path id="cours" d="M170.391,304.552a.6.6,0,0,1,.623-.333c.445.017.891,0,1.378,0v-.44c.008-.359.118-.49.467-.579a12.442,12.442,0,0,1,4.6-.3,7.653,7.653,0,0,1,4.691,2.147.492.492,0,0,0,.055.039c.047-.038.1-.077.149-.122a7.644,7.644,0,0,1,4.113-1.983,12.361,12.361,0,0,1,5.1.225c.34.084.447.211.452.563v.457h1.383c.491,0,.638.144.638.63v14.321c0,.558-.309.734-.813.485a13.282,13.282,0,0,0-3.435-1.1,17.039,17.039,0,0,0-7.233.2,2.3,2.3,0,0,1-1.067-.084,16.74,16.74,0,0,0-8.529.307,18.165,18.165,0,0,0-1.782.69c-.4.171-.584.133-.8-.241ZM181.748,317.4c.005-.051.009-.08.009-.11q0-5.568-.014-11.137a.457.457,0,0,0-.123-.276,6.559,6.559,0,0,0-3.577-1.92,10.668,10.668,0,0,0-3.309-.131c-.477.049-.95.144-1.418.215v12.074C176.232,315.821,179.092,315.854,181.748,317.4Zm9.356-1.284v-12.06a11.319,11.319,0,0,0-4.8-.078,6.492,6.492,0,0,0-3.477,1.879.574.574,0,0,0-.144.359q-.012,5.474-.006,10.949c0,.072.006.144.011.23,2.649-1.529,5.5-1.586,8.416-1.277Zm-19.778-10.958v13.411c.67-.215,1.319-.459,1.986-.635a16.511,16.511,0,0,1,4.125-.574c.688-.015,1.378.034,2.082.056a11.109,11.109,0,0,0-3.833-.528c-.9.035-1.795.129-2.691.206a.472.472,0,0,1-.586-.479c-.005-.085,0-.169,0-.254v-11.2Zm20.727,0v11.254a2.143,2.143,0,0,1-.005.254.451.451,0,0,1-.48.431,2.1,2.1,0,0,1-.276-.022,16.416,16.416,0,0,0-4.486-.077c-.639.086-1.268.251-1.9.379l.011.072a16.922,16.922,0,0,1,8.209,1.153V305.157Z" transform="translate(-170.14 -302.559)" fill="#4a4a4a" stroke="#4a4a4a" stroke-width="0.5"/>
</svg>
