<svg xmlns="http://www.w3.org/2000/svg" width="26.275" height="26.464" viewBox="0 0 26.275 26.464">
  <g id="connexxixon" transform="translate(0.002 0.001)">
    <path id="Path_1422" data-name="Path 1422" d="M83.6,66.53a11.869,11.869,0,0,1,3.039,2.059c3.623,3.469,5.014,7.682,3.677,12.544a12.147,12.147,0,0,1-9.563,9.051,12.7,12.7,0,0,1-13.442-4.572,12.323,12.323,0,0,1,1.814-17.364c.582-.468,1.234-.872,1.856-1.3a4.231,4.231,0,0,1,.4-.213c0,.524.019.984-.014,1.438,0,.119-.168.25-.288.334A10.982,10.982,0,0,0,66.229,75.8a10.782,10.782,0,0,0,4.579,11.221,11.755,11.755,0,0,0,17.453-4.4A11.163,11.163,0,0,0,84,68.358a.7.7,0,0,1-.421-.762A8.741,8.741,0,0,0,83.6,66.53Z" transform="translate(-64.54 -64.128)" fill="#f8aa71"/>
    <path id="Path_1423" data-name="Path 1423" d="M98.285,71.636l2.553-2.5c.72-.7,1.435-1.417,2.162-2.116a.781.781,0,0,1,.986-.122.7.7,0,0,1,.3.837.97.97,0,0,1-.252.393q-2.978,2.936-5.968,5.856a.769.769,0,0,1-1.22,0q-2.969-2.945-5.926-5.9a.758.758,0,0,1-.065-1.131.793.793,0,0,1,1.169.075q2.221,2.2,4.428,4.414c.122.122.222.262.332.4l.119-.049V57.317a3.174,3.174,0,0,1,.019-.517.676.676,0,0,1,.683-.552.659.659,0,0,1,.664.568,3.039,3.039,0,0,1,.016.437v13.82Z" transform="translate(-84.536 -56.25)" fill="#f8aa71"/>
  </g>
</svg>
