<svg xmlns="http://www.w3.org/2000/svg" width="25.481" height="22.621" viewBox="0 0 25.481 22.621">
  <g id="mentor-icon" transform="translate(-40.463 -410.173)">
    <path id="path" d="M55.877,434.569v3.308l-5.514,2.537" transform="translate(-3.278 -8.947)" fill="none" stroke="#f8aa71" stroke-linecap="round" stroke-miterlimit="10" stroke-width="2"/>
    <path id="path-2" d="M69.65,434.569v3.308l5.625,2.537" transform="translate(-10.654 -8.947)" fill="none" stroke="#f8aa71" stroke-linecap="round" stroke-miterlimit="10" stroke-width="2"/>
    <path id="path-3" d="M62.905,426.173a5.735,5.735,0,0,0,3.86-5.4V415.7a4.472,4.472,0,0,0-4.422-4.522H59.817a4.567,4.567,0,0,0-4.632,4.5v5.1a5.735,5.735,0,0,0,3.86,5.4" transform="translate(-5.122)" fill="none" stroke="#f8aa71" stroke-linecap="round" stroke-miterlimit="10" stroke-width="2"/>
    <path id="path-4" d="M46.313,430.461v2.647l-4.522,2.1" transform="translate(0 -7.376)" fill="none" stroke="#f8aa71" stroke-linecap="round" stroke-miterlimit="10" stroke-width="2"/>
    <path id="path-5" d="M50.352,411.174H49.47a3.719,3.719,0,0,0-3.75,3.688V419a4.686,4.686,0,0,0,3.088,4.411" transform="translate(-1.503 0)" fill="none" stroke="#f8aa71" stroke-linecap="round" stroke-miterlimit="10" stroke-width="2"/>
  </g>
</svg>
